# xmcd CD database file
#
# Track frame offsets:
#	150
#	15402
#	31215
#	41490
#	53722
#	66985
#	82115
#	97127
#	106977
#	121857
#	139117
#	154667
#	170337
#	187492
#
# Disc length: 2651 seconds
#
# Revision: 0
# Processed by: cddbd v1.5.1PL0 Copyright (c) Steve Scherf et al.
# Submitted via: CDex 1.51
#
DISCID=bc0a590e
DTITLE=Ρένα Βλαχοπούλου - Η Ρένα τραγουδάει Jazz
DYEAR=1900
DGENRE=Jazz
TTITLE0=Θα τραγουδώ για πάντα Τζαζ 
TTITLE1=Αν ερωτευτώ
TTITLE2=Το φιλί που χτες μου έδωσες στο στόμα
TTITLE3=Όταν σκοτεινιάζει
TTITLE4=Βρέχει
TTITLE5=Ο άντρας π'αγαπώ
TTITLE6=Μα τι μπίζνες, το σώου μπίζνες
TTITLE7=Αγάπη μου που να'σαι
TTITLE8=Γύρισα το χρόνο στην αρχή
TTITLE9=Καινούρια ζωή
TTITLE10=Εσύ κι εγώ
TTITLE11=Σαν φως
TTITLE12=Over the rainbow
TTITLE13=Ανοίξτε αυλαία
EXTD=
EXTT0=
EXTT1=
EXTT2=
EXTT3=
EXTT4=
EXTT5=
EXTT6=
EXTT7=
EXTT8=
EXTT9=
EXTT10=
EXTT11=
EXTT12=
EXTT13=
PLAYORDER=
